<?xml version="1.0" standalone="no"?>
<!DOCTYPE svg PUBLIC "-//W3C//DTD SVG 20010904//EN"
 "http://www.w3.org/TR/2001/REC-SVG-20010904/DTD/svg10.dtd">
<svg version="1.0" xmlns="http://www.w3.org/2000/svg"
 width="486.000000pt" height="486.000000pt" viewBox="0 0 486.000000 486.000000"
 preserveAspectRatio="xMidYMid meet">
<metadata>
Created by potrace 1.11, written by Peter Selinger 2001-2013
</metadata>
<g transform="translate(0.000000,486.000000) scale(0.100000,-0.100000)"
fill="#000000" stroke="none">
<path d="M914 4091 c-57 -19 -139 -69 -171 -103 -27 -29 -70 -109 -78 -146
-15 -72 -97 -128 -278 -192 -95 -33 -105 -41 -157 -115 -19 -28 -37 -52 -40
-55 -3 -3 -12 -16 -19 -30 -87 -149 -110 -216 -105 -296 2 -32 4 -67 5 -76 0
-10 4 -20 10 -23 5 -4 9 -17 9 -30 0 -13 5 -27 10 -30 6 -4 8 -10 5 -14 -5 -9
15 -32 81 -93 21 -20 59 -57 83 -82 24 -25 53 -48 65 -52 12 -4 37 -19 56 -34
19 -15 71 -47 115 -70 44 -23 109 -61 145 -84 114 -73 207 -111 279 -113 68
-2 81 -8 84 -42 1 -11 5 -21 9 -21 4 0 8 -6 8 -12 0 -7 27 -42 60 -78 33 -35
60 -70 60 -77 0 -7 5 -13 10 -13 17 0 28 -42 16 -56 -6 -7 -14 -10 -18 -8 -3
2 -39 -13 -80 -35 -45 -23 -115 -49 -183 -65 -60 -15 -141 -37 -180 -49 -64
-20 -94 -24 -120 -17 -34 9 -63 -2 -75 -27 -19 -41 -20 -51 -3 -65 9 -7 18
-12 20 -10 6 6 67 -10 79 -19 20 -16 98 -21 144 -9 42 10 66 16 115 24 11 2
34 7 50 11 17 4 27 4 23 0 -4 -5 -4 -13 1 -19 15 -18 -26 -97 -72 -138 -23
-21 -45 -38 -50 -38 -4 0 -6 -4 -2 -9 3 -5 1 -12 -5 -16 -6 -4 -8 -11 -5 -16
4 -5 2 -9 -4 -9 -6 0 -8 -7 -5 -15 4 -8 1 -15 -5 -15 -7 0 -11 -6 -9 -13 2 -7
-12 -27 -30 -45 -27 -26 -32 -39 -31 -69 3 -45 38 -97 80 -119 20 -10 62 -16
127 -17 81 -2 109 -7 167 -30 125 -51 134 -56 172 -89 21 -19 51 -40 66 -48
16 -8 50 -36 75 -62 39 -39 55 -48 92 -53 25 -3 61 -9 80 -13 39 -9 43 -9 83
2 15 5 27 13 27 19 0 6 3 8 6 4 3 -3 15 3 27 13 11 11 24 17 29 14 4 -3 8 -1
8 4 0 5 19 13 43 17 23 4 47 9 52 11 40 12 70 15 140 14 44 0 94 -2 112 -4 54
-6 119 -39 142 -72 76 -110 133 -136 221 -101 18 7 95 27 130 34 37 7 157 7
225 -1 185 -20 215 -28 215 -53 0 -34 -63 -69 -137 -76 -98 -10 -118 -72 -49
-152 14 -16 26 -26 26 -21 0 5 6 4 13 -2 25 -21 153 -36 164 -20 2 5 8 6 13 3
4 -3 19 20 34 50 30 64 56 84 122 92 27 3 51 9 54 12 3 4 44 24 93 46 48 21
87 41 87 45 0 3 10 7 23 7 115 8 177 17 207 32 80 39 154 84 186 115 18 17 58
40 88 50 75 26 107 57 130 129 5 15 2 17 -16 12 -18 -6 -19 -5 -7 8 8 8 16 13
18 11 2 -2 13 1 24 7 14 8 18 8 12 0 -3 -6 11 -2 33 9 22 12 43 28 46 37 4 9
9 13 13 10 3 -4 12 -2 20 5 7 6 16 8 20 5 3 -4 12 -2 20 4 7 6 13 8 13 5 0
-25 235 188 241 219 1 6 17 26 36 45 18 19 33 38 33 42 0 4 21 29 47 56 51 53
63 69 89 120 9 17 19 32 23 32 28 0 34 160 8 186 -4 4 -7 16 -7 26 0 23 -75
97 -98 96 -25 -1 -144 13 -165 18 -9 3 -15 10 -12 15 17 27 31 214 23 307 -1
8 -14 26 -29 42 -26 25 -28 32 -23 82 7 71 -22 149 -77 206 -45 48 -171 142
-188 142 -6 0 -11 5 -11 10 0 6 -6 10 -14 10 -8 0 -16 3 -18 8 -1 4 -30 27
-63 52 -33 25 -62 47 -65 50 -3 3 -43 32 -90 63 -109 74 -133 94 -126 106 8
13 -20 95 -34 99 -5 2 -37 23 -69 47 -54 40 -59 47 -58 81 1 27 -5 41 -22 55
-27 22 -71 25 -71 5 0 -15 -21 -26 -51 -26 -10 0 -19 -4 -19 -10 0 -20 -48
-10 -71 15 -13 13 -30 25 -36 25 -7 0 -13 6 -13 14 0 28 -52 53 -105 51 -28
-1 -57 3 -65 10 -8 7 -32 18 -52 25 -21 6 -38 16 -38 21 0 15 -58 -19 -70 -41
-9 -17 -18 -19 -76 -15 -36 3 -71 8 -77 12 -5 3 -36 7 -68 8 -31 1 -74 10 -94
19 -21 10 -59 20 -84 22 -25 3 -63 6 -83 9 -29 3 -40 0 -51 -16 -10 -14 -30
-21 -67 -25 -29 -3 -73 -12 -97 -20 -80 -27 -188 -40 -198 -23 -5 7 -13 5 -24
-5 -55 -50 -109 -50 -251 -1 -41 14 -86 28 -100 31 -13 3 -38 13 -55 24 -16
10 -46 21 -65 25 -30 6 -109 37 -196 77 -11 5 -32 11 -46 12 -36 4 -41 9 -99
93 -56 83 -92 123 -109 123 -5 0 -10 4 -10 8 0 5 -25 21 -55 36 -69 35 -150
41 -221 17z m3463 -1727 c-3 -3 -12 -4 -19 -1 -8 3 -5 6 6 6 11 1 17 -2 13 -5z"/>
</g>
</svg>
